HIERARCHY
ROOT hip
{
	OFFSET 0.000000 0.000000 0.000000
	CHANNELS 6 Xposition Yposition Zposition Zrotation Yrotation Xrotation 
	JOINT lhipjoint
	{
		OFFSET 0.000000 0.000000 0.000000
		CHANNELS 3 Zrotation Yrotation Xrotation
		JOINT lfemur
		{
			OFFSET 1.363060 -1.794630 0.839290
			CHANNELS 3 Zrotation Yrotation Xrotation
			JOINT ltibia
			{
				OFFSET 2.448110 -6.726130 0.000000
				CHANNELS 3 Zrotation Yrotation Xrotation
				JOINT lfoot
				{
					OFFSET 2.562200 -7.039590 0.000000
					CHANNELS 3 Zrotation Yrotation Xrotation
					JOINT ltoes
					{
						OFFSET 0.157640 -0.433110 2.322550
						CHANNELS 3 Zrotation Yrotation Xrotation
						End Site
						{
							OFFSET 0.000000 0.000000 0.000000
						}
					}
				}
			}
		}
	}
	JOINT rhipjoint
	{
		OFFSET 0.000000 0.000000 0.000000
		CHANNELS 3 Zrotation Yrotation Xrotation
		JOINT rfemur
		{
			OFFSET -1.305520 -1.794630 0.839290
			CHANNELS 3 Zrotation Yrotation Xrotation
			JOINT rtibia
			{
				OFFSET -2.542530 -6.985550 0.000000
				CHANNELS 3 Zrotation Yrotation Xrotation
				JOINT rfoot
				{
					OFFSET -2.568260 -7.056230 0.000000
					CHANNELS 3 Zrotation Yrotation Xrotation
					JOINT rtoes
					{
						OFFSET -0.164730 -0.452590 2.363150
						CHANNELS 3 Zrotation Yrotation Xrotation
						End Site
						{
							OFFSET 0.000000 0.000000 0.000000
						}
					}
				}
			}
		}
	}
	JOINT lowerback
	{
		OFFSET 0.000000 0.000000 0.000000
		CHANNELS 3 Zrotation Yrotation Xrotation
		JOINT upperback
		{
			OFFSET 0.028270 2.035590 -0.193380
			CHANNELS 3 Zrotation Yrotation Xrotation
			JOINT thorax
			{
				OFFSET 0.056720 2.048850 -0.042750
				CHANNELS 3 Zrotation Yrotation Xrotation
				JOINT lowerneck
				{
					OFFSET 0.000000 0.000000 0.000000
					CHANNELS 3 Zrotation Yrotation Xrotation
					JOINT upperneck
					{
						OFFSET -0.054170 1.746240 0.172020
						CHANNELS 3 Zrotation Yrotation Xrotation
						JOINT head
						{
							OFFSET 0.104070 1.761360 -0.123970
							CHANNELS 3 Zrotation Yrotation Xrotation
							End Site
							{
								OFFSET 0.000000 0.000000 0.000000
							}
						}
					}
				}
				JOINT lclavicle
				{
					OFFSET 0.000000 0.000000 0.000000
					CHANNELS 3 Zrotation Yrotation Xrotation
					JOINT lhumerus
					{
						OFFSET 3.362410 1.200890 -0.311210
						CHANNELS 3 Zrotation Yrotation Xrotation
						JOINT lradius
						{
							OFFSET 4.983000 -0.000000 -0.000000
							CHANNELS 3 Zrotation Yrotation Xrotation
							JOINT lwrist
							{
								OFFSET 3.483560 -0.000000 -0.000000
								CHANNELS 3 Zrotation Yrotation Xrotation
								JOINT lhand
								{
									OFFSET 0.000000 0.000000 0.000000
									CHANNELS 3 Zrotation Yrotation Xrotation
									JOINT lfingers
									{
										OFFSET 0.715260 -0.000000 -0.000000
										CHANNELS 3 Zrotation Yrotation Xrotation
										End Site
										{
											OFFSET 0.000000 0.000000 0.000000
										}
									}
								}
								JOINT lthumb
								{
									OFFSET 0.000000 0.000000 0.000000
									CHANNELS 3 Zrotation Yrotation Xrotation
									End Site
									{
										OFFSET 0.000000 0.000000 0.000000
									}
								}
							}
						}
					}
				}
				JOINT rclavicle
				{
					OFFSET 0.000000 0.000000 0.000000
					CHANNELS 3 Zrotation Yrotation Xrotation
					JOINT rhumerus
					{
						OFFSET -3.136600 1.374050 -0.404650
						CHANNELS 3 Zrotation Yrotation Xrotation
						JOINT rradius
						{
							OFFSET -5.241900 -0.000000 -0.000000
							CHANNELS 3 Zrotation Yrotation Xrotation
							JOINT rwrist
							{
								OFFSET -3.444170 -0.000000 -0.000000
								CHANNELS 3 Zrotation Yrotation Xrotation
								JOINT rhand
								{
									OFFSET 0.000000 0.000000 0.000000
									CHANNELS 3 Zrotation Yrotation Xrotation
									JOINT rfingers
									{
										OFFSET -0.622530 -0.000000 -0.000000
										CHANNELS 3 Zrotation Yrotation Xrotation
										End Site
										{
											OFFSET 0.000000 0.000000 0.000000
										}
									}
								}
								JOINT rthumb
								{
									OFFSET 0.000000 0.000000 0.000000
									CHANNELS 3 Zrotation Yrotation Xrotation
									End Site
									{
										OFFSET 0.000000 0.000000 0.000000
									}
								}
							}
						}
					}
				}
			}
		}
	}
}
MOTION
Frames: 11
Frame Time: 0.008333
-0.737064 19.374023 3.540434 -144.374680 22.317900 -170.644958 5.978359 0.904864 -4.189938 11.128916 7.021946 -7.564570 2.924143 10.220132 30.627671 1.057071 1.968746 12.149436 0.048900 -1.427600 -3.926100 -8.014310 -3.779339 2.062802 -5.736442 9.346403 -43.874960 -7.222485 -17.318161 51.411548 0.250329 -6.382897 4.461249 -1.295800 7.212100 -20.345200 0.186673 5.880460 24.744124 -0.349177 10.721819 0.329483 -0.104639 8.053612 8.312452 -4.795734 -16.441935 -6.076463 15.171790 -27.041889 3.142915 10.419800 -11.832300 4.646100 -7.724928 -3.964778 4.751890 -8.409119 -4.873090 -4.293138 43.967140 -50.298540 -30.018167 0.386752 -0.739644 25.211839 59.519516 -14.723588 -21.893000 -7.125000 0.000000 0.000000 19.778400 5.371400 -19.038100 2.410984 4.305376 6.303239 78.366975 -27.093034 17.296184 -8.599427 30.106619 -2.022785 -0.339188 -1.960682 7.233615 -3.588275 10.032452 -0.731100 7.125000 0.000000 0.000000 16.407800 -18.193700 10.921700 
-0.731790 19.359196 3.527896 -144.673041 22.236911 -170.840952 5.998857 0.901292 -4.186644 10.782909 6.696063 -7.491100 2.968611 10.277918 30.830437 1.034156 2.002622 11.984325 0.030100 -1.119100 -3.076600 -8.041713 -3.748303 1.950726 -5.338449 9.310668 -43.694700 -7.994738 -17.960513 54.413831 -0.127869 -5.193189 5.573361 -1.376400 7.424200 -20.978400 0.029874 5.719747 24.586369 -0.333947 10.472121 0.356278 -0.259957 7.952784 8.533962 -4.719572 -16.340203 -6.371898 15.048907 -26.856267 3.234862 10.268600 -11.736200 4.610200 -7.729903 -3.913930 4.686913 -10.594038 -4.550747 -2.672563 43.883530 -50.584738 -29.835224 0.356767 -0.600028 24.949811 59.059349 -13.983958 -20.812900 -7.125000 0.000000 0.000000 19.739300 6.487700 -18.547400 2.420630 4.268709 6.252543 78.932672 -27.323936 17.807940 -8.939609 30.501137 -2.060502 -0.339350 -1.998763 7.429675 -3.638221 10.088503 -0.749700 7.125000 0.000000 0.000000 16.358300 -18.101500 10.920700 
-0.724924 19.343772 3.517149 -145.049999 22.064039 -170.984755 6.020853 0.899888 -4.178500 10.381636 6.389545 -7.569642 2.998982 10.341340 31.027496 1.070056 1.871747 11.871487 0.017800 -0.861700 -2.368400 -8.056539 -3.715909 1.841155 -5.018596 9.214836 -43.518771 -8.777903 -18.542893 57.336069 -0.525369 -3.985470 6.889006 -1.226700 7.024600 -19.788300 -0.210638 5.543637 24.314202 -0.315033 10.197152 0.386281 -0.313751 7.820537 8.820267 -4.695179 -16.218198 -6.709207 14.969726 -26.682166 3.334392 10.141800 -11.640500 4.614500 -7.718583 -3.868552 4.619278 -12.712513 -4.302135 -1.102651 43.574187 -50.816871 -29.451085 0.343397 -0.466804 24.907376 58.732939 -13.850914 -20.695100 -7.125000 0.000000 0.000000 19.579900 6.536600 -18.357600 2.423684 4.200895 6.199189 79.472174 -27.452630 18.154260 -9.244761 30.832024 -2.090434 -0.334128 -2.025309 7.558358 -3.592469 10.143095 -0.747600 7.125000 0.000000 0.000000 16.373700 -18.025500 10.960700 
-0.715470 19.326656 3.508591 -145.537204 21.776665 -171.153753 6.047107 0.900515 -4.163790 9.902308 6.045616 -7.780423 3.029469 10.429331 31.285751 1.160305 1.577236 11.753863 0.008300 -0.588400 -1.617000 -8.059307 -3.680766 1.724884 -4.764931 9.021647 -43.270466 -9.563260 -19.061001 60.167289 -0.963884 -2.556280 8.001312 -1.101900 6.669900 -18.741100 -0.525463 5.335379 24.025590 -0.295571 9.874075 0.418018 -0.340948 7.658211 9.130633 -4.662456 -16.084819 -7.079868 14.909611 -26.506081 3.443446 10.014400 -11.541100 4.636200 -7.690907 -3.828168 4.547555 -14.776734 -4.147420 0.382082 43.056274 -51.005269 -28.880724 0.351595 -0.342890 24.882157 58.582803 -14.765764 -22.135700 -7.125000 0.000000 0.000000 19.198700 4.823900 -18.616200 2.416801 4.124045 6.143926 80.006801 -27.496441 18.450203 -9.504815 31.118737 -2.113948 -0.328580 -2.051781 7.684096 -3.567769 10.177122 -0.748900 7.125000 0.000000 0.000000 16.376300 -17.968500 10.984200 
-0.702435 19.305361 3.503417 -146.130706 21.401962 -171.357344 6.074411 0.903590 -4.142136 9.354879 5.710497 -8.112218 3.063524 10.543630 31.612312 1.296586 1.147671 11.658376 0.003900 -0.403100 -1.107700 -8.047576 -3.643226 1.605189 -4.588878 8.721891 -42.982066 -10.349651 -19.518859 62.910488 -1.397160 -1.042153 8.829856 -1.019900 6.424900 -18.022500 -0.925266 5.117961 23.758563 -0.275071 9.529030 0.447796 -0.346994 7.475164 9.409983 -4.619043 -15.942543 -7.422548 14.874857 -26.317947 3.552790 9.898700 -11.438000 4.648500 -7.639683 -3.806797 4.472292 -16.881046 -4.176812 1.663635 42.217953 -51.080657 -28.031447 0.367583 -0.211507 24.935857 58.522289 -15.927999 -23.946100 -7.125000 0.000000 0.000000 18.793200 2.685400 -18.956100 2.393318 4.060302 6.090414 80.617738 -27.499005 18.587634 -9.728014 31.367948 -2.136446 -0.333762 -2.079947 7.871955 -3.617439 10.277530 -0.768500 7.125000 0.000000 0.000000 16.328400 -17.842600 10.996700 
-0.689001 19.280783 3.501626 -146.643740 21.026289 -171.461323 6.101654 0.910575 -4.112873 8.903233 5.448141 -8.589814 3.106509 10.681201 32.000889 1.445812 0.677483 11.567101 0.002300 -0.310300 -0.852500 -8.057694 -3.619781 1.502460 -4.279022 8.460760 -42.765767 -11.143218 -19.926072 65.561181 -1.760523 0.270682 9.419695 -0.972800 6.279000 -17.596200 -1.228278 4.908589 23.449532 -0.252193 9.203199 0.470474 -0.357126 7.303198 9.654597 -4.632403 -15.799928 -7.706566 14.862608 -26.136116 3.649073 9.825200 -11.338800 4.664500 -7.569374 -3.796932 4.399368 -19.034151 -4.367539 2.771515 41.103793 -51.041427 -26.947511 0.384000 -0.073415 25.129279 58.459705 -16.934471 -25.508200 -7.125000 0.000000 0.000000 18.433600 0.815700 -19.195500 2.341304 4.006212 6.040385 81.269074 -27.457853 18.530448 -9.869958 31.554513 -2.148014 -0.343716 -2.098893 8.201105 -3.643250 10.416672 -0.785000 7.125000 0.000000 0.000000 16.294800 -17.688200 11.030100 
-0.675169 19.252920 3.500929 -147.114114 20.717397 -171.468345 6.131966 0.921645 -4.080436 8.493111 5.264075 -9.151859 3.153670 10.829193 32.414629 1.597501 0.205287 11.522254 0.000900 -0.188400 -0.517600 -8.083785 -3.611184 1.426592 -3.902400 8.290398 -42.661501 -11.937337 -20.289786 68.125208 -2.078390 1.423061 9.957650 -0.897300 6.037300 -16.892600 -1.504978 4.736613 23.063015 -0.232665 8.913551 0.484140 -0.375863 7.148047 9.870473 -4.661389 -15.652591 -7.945795 14.854070 -25.950429 3.792408 9.763800 -11.250600 4.709900 -7.483091 -3.795020 4.334597 -21.193179 -4.673631 3.722928 39.698985 -50.857684 -25.644110 0.400880 0.062243 25.543075 58.427322 -17.866260 -26.950200 -7.125000 0.000000 0.000000 18.113900 -0.917900 -19.391400 2.267995 3.957561 5.989974 81.937743 -27.408505 18.440339 -9.970667 31.718834 -2.157366 -0.360359 -2.122389 8.477494 -3.734503 10.575176 -0.816000 7.125000 0.000000 0.000000 16.220300 -17.507600 11.042700 
-0.663825 19.228938 3.500431 -147.601616 20.446551 -171.434209 6.165005 0.937726 -4.048805 8.048310 5.167752 -9.777396 3.202628 10.986048 32.839884 1.748284 -0.265149 11.474113 0.001300 -0.230200 -0.632500 -8.114449 -3.613694 1.378388 -3.472719 8.121725 -42.739854 -12.736815 -20.618060 70.621964 -2.318474 2.301395 10.291133 -1.012900 6.403200 -17.959000 -1.821365 4.580719 22.633036 -0.212547 8.632762 0.492058 -0.338642 6.984591 10.056208 -4.769439 -15.493873 -8.113750 14.865960 -25.752990 3.949907 9.745500 -11.165700 4.767100 -7.386294 -3.799349 4.284226 -23.377160 -5.024706 4.712189 38.208132 -50.594820 -24.287628 0.414292 0.199584 26.274859 58.193752 -18.008806 -27.218100 -7.125000 0.000000 0.000000 17.916100 -1.330800 -19.287000 2.175841 3.903738 5.942469 82.574980 -27.336804 18.304029 -10.047748 31.845292 -2.162230 -0.372635 -2.145284 8.768438 -3.824350 10.678828 -0.844700 7.125000 0.000000 0.000000 16.148200 -17.380900 11.036400 
-0.657059 19.210430 3.499138 -148.094970 20.204305 -171.397822 6.203936 0.957162 -4.020503 7.566821 5.079818 -10.387996 3.254682 11.143921 33.263634 1.883835 -0.693157 11.405993 0.003300 -0.370600 -1.018300 -8.154389 -3.626420 1.352003 -2.967154 7.969086 -42.936575 -13.531921 -20.908143 73.026508 -2.474159 2.841781 10.493658 -1.269600 7.141600 -20.135600 -2.133967 4.437018 22.215949 -0.195315 8.365560 0.495925 -0.314666 6.831616 10.225614 -4.862896 -15.345654 -8.283840 14.863038 -25.566785 4.142237 9.707800 -11.093300 4.849900 -7.275424 -3.803787 4.241870 -25.527659 -5.432282 5.792255 36.727348 -50.286372 -22.942528 0.423528 0.339044 26.991781 57.742668 -17.460575 -26.449500 -7.125000 0.000000 0.000000 17.804000 -0.580100 -18.917200 2.076272 3.854806 5.891011 83.211791 -27.253015 18.198093 -10.138826 31.990532 -2.169361 -0.380635 -2.176402 8.983709 -3.924396 10.723249 -0.873400 7.125000 0.000000 0.000000 16.071500 -17.303200 11.008000 
-0.651586 19.190627 3.499138 -148.520804 20.008690 -171.349485 6.245434 0.978371 -3.993277 7.145117 5.009764 -10.967508 3.312629 11.301041 33.694058 2.004251 -1.078311 11.334389 0.005700 -0.488400 -1.342000 -8.216868 -3.646789 1.332318 -2.325425 7.862901 -43.120241 -14.307993 -21.155653 75.312596 -2.597650 3.235783 10.709104 -1.444900 7.598900 -21.502300 -2.375479 4.305832 21.826715 -0.179273 8.128380 0.498272 -0.301345 6.701765 10.386377 -4.970416 -15.194614 -8.446972 14.868420 -25.380408 4.346402 9.681600 -11.022400 4.952700 -7.153975 -3.805698 4.209764 -27.650660 -5.943106 6.843912 35.086639 -49.853112 -21.500306 0.431713 0.473329 27.616933 57.253701 -16.877633 -25.597800 -7.125000 0.000000 0.000000 17.684200 0.260000 -18.509500 1.969854 3.806138 5.838527 83.827735 -27.152435 18.108116 -10.230553 32.144197 -2.178213 -0.388207 -2.210881 9.130035 -4.028596 10.755616 -0.902300 7.125000 0.000000 0.000000 15.993800 -17.234000 10.975700 
-0.647406 19.167243 3.499934 -148.911013 19.818362 -171.365121 6.290856 0.999861 -3.965359 6.755925 4.885820 -11.460350 3.377869 11.457793 34.145871 2.127220 -1.483637 11.240976 0.007300 -0.552400 -1.517800 -8.298783 -3.667214 1.299785 -1.587730 7.767433 -43.137691 -15.039721 -21.352966 77.428152 -2.724613 3.628356 11.024748 -1.410900 7.512800 -21.243700 -2.550585 4.159692 21.530723 -0.164823 7.881359 0.498762 -0.329714 6.581082 10.516926 -5.056852 -15.043018 -8.598161 14.856119 -25.176147 4.562859 9.647700 -10.946600 5.053400 -7.028205 -3.803970 4.187840 -29.692931 -6.500277 7.963618 33.346035 -49.305482 -20.010607 0.433781 0.600910 28.169746 56.770119 -16.013331 -24.400700 -7.125000 0.000000 0.000000 17.652000 1.533400 -18.059700 1.859997 3.770540 5.786492 84.415100 -27.068319 18.075768 -10.325536 32.316744 -2.190874 -0.401061 -2.248611 9.266918 -4.173376 10.815608 -0.941900 7.125000 0.000000 0.000000 15.889700 -17.132400 10.935100 
